<?xml version="1.0" encoding="utf-8"?>
<!-- Generator: Adobe Illustrator 24.1.0, SVG Export Plug-In . SVG Version: 6.00 Build 0)  -->
<svg version="1.1" id="Layer_1" xmlns="http://www.w3.org/2000/svg" xmlns:xlink="http://www.w3.org/1999/xlink" x="0px" y="0px"
	 viewBox="0 0 680 196.01" style="enable-background:new 0 0 680 196.01;" xml:space="preserve">
<style type="text/css">
	.st0{fill:#151515;}
	.st1{fill:#EE4037;}
</style>
<g>
	<g>
		<g>
			<path class="st0" d="M319.39,74.66h-10.51l-12.29-17.23h-23.3v17.23h-9.16v-46.9h37.92c4.98,0,8.94,1.35,11.89,4.03
				c2.94,2.69,4.44,6.29,4.44,10.83c0,7.78-3.89,12.54-11.67,14.25L319.39,74.66z M300.7,49.18c5.53,0,8.32-2.14,8.32-6.4
				c0-4.54-2.94-6.8-8.83-6.8h-26.87v13.19L300.7,49.18L300.7,49.18z"/>
			<path class="st0" d="M385.15,74.66h-50.5v-46.9h48.75v8.25h-39.59v10.14h27.52v8.22h-27.52v12.07h41.34L385.15,74.66
				L385.15,74.66z"/>
			<path class="st0" d="M454.04,27.77l-25.92,46.9h-10.54l-25.92-46.9h10.11l21.08,38.93l21.08-38.93H454.04z"/>
			<path class="st0" d="M514.6,74.66h-50.5v-46.9h48.75v8.25h-39.59v10.14h27.52v8.22h-27.52v12.07h41.33V74.66z"/>
			<path class="st0" d="M583.93,74.66h-10.5l-12.29-17.23h-23.3v17.23h-9.16v-46.9h37.92c4.98,0,8.94,1.35,11.89,4.03
				c2.94,2.69,4.44,6.29,4.44,10.83c0,7.78-3.89,12.54-11.67,14.25L583.93,74.66z M565.24,49.18c5.53,0,8.32-2.14,8.32-6.4
				c0-4.54-2.94-6.8-8.83-6.8h-26.86v13.19L565.24,49.18L565.24,49.18z"/>
			<path class="st0" d="M608.36,74.66h-9.16v-46.9h9.16V74.66z"/>
			<path class="st0" d="M677.14,74.66h-50.5v-46.9h48.75v8.25h-39.59v10.14h27.52v8.22h-27.52v12.07h41.33L677.14,74.66
				L677.14,74.66z"/>
		</g>
		<g>
			<path class="st0" d="M277.58,129.67H264.1v-24.03h3.93v20.57h9.56V129.67z"/>
			<path class="st0" d="M296.81,117.52v8c0.04,0.51,0.14,0.91,0.4,1.13c0.25,0.25,0.62,0.4,1.13,0.47l-0.11,2.91
				c-2,0-3.56-0.44-4.65-1.31c-1.85,0.87-3.74,1.31-5.63,1.31c-3.49,0-5.24-1.86-5.24-5.56c0-1.78,0.47-3.05,1.42-3.85
				c0.95-0.8,2.4-1.27,4.36-1.45l4.51-0.4v-1.27c0-0.95-0.22-1.6-0.62-1.96c-0.4-0.37-1.02-0.55-1.82-0.55
				c-1.49,0-3.38,0.11-5.6,0.29l-1.13,0.07l-0.14-2.69c2.55-0.62,4.91-0.91,7.05-0.91c2.14,0,3.67,0.47,4.62,1.38
				C296.34,114.07,296.81,115.53,296.81,117.52z M288.96,121.89c-1.6,0.14-2.44,1.02-2.44,2.62c0,1.6,0.73,2.44,2.14,2.44
				c1.16,0,2.4-0.18,3.71-0.54l0.62-0.22v-4.65L288.96,121.89z"/>
			<path class="st0" d="M308.96,129.67h-3.82v-17.56h3.78v1.09c1.71-0.98,3.31-1.49,4.83-1.49c2.33,0,3.93,0.65,4.8,2
				c0.84,1.31,1.27,3.49,1.27,6.54v9.41h-3.78v-9.31c0-1.89-0.22-3.24-0.62-4.03c-0.4-0.8-1.24-1.2-2.51-1.2
				c-1.2,0-2.33,0.22-3.45,0.69l-0.51,0.22L308.96,129.67L308.96,129.67z"/>
			<path class="st0" d="M343.12,132.07c0,3.85-2.76,5.74-8.32,5.74c-2.65,0-4.65-0.36-5.92-1.09c-1.27-0.73-1.93-2.03-1.93-3.96
				c0-0.87,0.22-1.6,0.62-2.22c0.44-0.62,1.09-1.31,2.03-2c-0.76-0.51-1.16-1.38-1.16-2.54c0-0.47,0.33-1.24,0.95-2.29l0.33-0.51
				c-1.67-1.02-2.51-2.76-2.51-5.27c0-2.11,0.62-3.64,1.89-4.62c1.27-0.98,2.98-1.49,5.13-1.49c1.02,0,2.03,0.11,3.05,0.36
				l0.51,0.11l5.45-0.14v3.09l-2.91-0.18c0.62,0.84,0.95,1.78,0.95,2.87c0,2.29-0.58,3.89-1.75,4.76c-1.16,0.87-2.98,1.31-5.42,1.31
				c-0.62,0-1.13-0.04-1.53-0.14c-0.33,0.8-0.51,1.42-0.51,1.86c0,0.43,0.22,0.72,0.66,0.91c0.44,0.18,1.49,0.26,3.13,0.29
				c2.8,0.04,4.69,0.4,5.71,1.13C342.62,128.68,343.12,130.07,343.12,132.07z M330.69,132.43c0,0.84,0.33,1.42,0.98,1.75
				c0.66,0.37,1.78,0.51,3.38,0.51c2.84,0,4.25-0.8,4.25-2.44c0-0.91-0.25-1.49-0.76-1.75c-0.51-0.25-1.49-0.36-3.02-0.4l-3.45-0.22
				c-0.51,0.44-0.87,0.8-1.09,1.16C330.8,131.45,330.69,131.88,330.69,132.43z M331.75,120.25c0.51,0.51,1.34,0.76,2.51,0.76
				s1.96-0.25,2.47-0.76c0.51-0.51,0.76-1.31,0.76-2.36c0-1.09-0.25-1.85-0.76-2.36c-0.51-0.51-1.34-0.76-2.51-0.76
				c-2.15,0-3.24,1.05-3.24,3.12C330.98,118.98,331.24,119.74,331.75,120.25z"/>
			<path class="st0" d="M360.36,112.14h3.78v17.56h-3.78v-1.09c-1.71,0.98-3.27,1.49-4.73,1.49c-2.4,0-4.03-0.65-4.84-1.96
				c-0.83-1.31-1.23-3.56-1.23-6.83v-9.16h3.82v9.2c0,2.11,0.18,3.52,0.51,4.25c0.37,0.73,1.16,1.09,2.47,1.09
				c1.27,0,2.44-0.22,3.49-0.69l0.51-0.22V112.14z"/>
			<path class="st0" d="M385.26,117.52v8c0.04,0.51,0.14,0.91,0.4,1.13c0.25,0.25,0.62,0.4,1.13,0.47l-0.11,2.91
				c-2,0-3.56-0.44-4.65-1.31c-1.86,0.87-3.74,1.31-5.64,1.31c-3.49,0-5.24-1.86-5.24-5.56c0-1.78,0.47-3.05,1.42-3.85
				c0.95-0.8,2.4-1.27,4.36-1.45l4.51-0.4v-1.27c0-0.95-0.22-1.6-0.62-1.96c-0.4-0.37-1.02-0.55-1.82-0.55
				c-1.49,0-3.38,0.11-5.6,0.29l-1.13,0.07l-0.14-2.69c2.55-0.62,4.91-0.91,7.05-0.91c2.14,0,3.67,0.47,4.62,1.38
				C384.79,114.07,385.26,115.53,385.26,117.52z M377.41,121.89c-1.6,0.14-2.44,1.02-2.44,2.62c0,1.6,0.72,2.44,2.14,2.44
				c1.16,0,2.4-0.18,3.71-0.54l0.62-0.22v-4.65L377.41,121.89z"/>
			<path class="st0" d="M408.89,132.07c0,3.85-2.76,5.74-8.32,5.74c-2.66,0-4.65-0.36-5.93-1.09c-1.27-0.73-1.93-2.03-1.93-3.96
				c0-0.87,0.22-1.6,0.62-2.22c0.44-0.62,1.09-1.31,2.03-2c-0.76-0.51-1.16-1.38-1.16-2.54c0-0.47,0.33-1.24,0.95-2.29l0.33-0.51
				c-1.67-1.02-2.51-2.76-2.51-5.27c0-2.11,0.62-3.64,1.89-4.62c1.27-0.98,2.98-1.49,5.13-1.49c1.02,0,2.03,0.11,3.05,0.36
				l0.51,0.11l5.45-0.14v3.09l-2.91-0.18c0.62,0.84,0.95,1.78,0.95,2.87c0,2.29-0.58,3.89-1.75,4.76c-1.16,0.87-2.98,1.31-5.42,1.31
				c-0.62,0-1.13-0.04-1.53-0.14c-0.33,0.8-0.51,1.42-0.51,1.86c0,0.43,0.22,0.72,0.65,0.91c0.44,0.18,1.49,0.26,3.13,0.29
				c2.8,0.04,4.69,0.4,5.71,1.13C408.38,128.68,408.89,130.07,408.89,132.07z M396.49,132.43c0,0.84,0.33,1.42,0.98,1.75
				c0.65,0.37,1.78,0.51,3.38,0.51c2.84,0,4.25-0.8,4.25-2.44c0-0.91-0.25-1.49-0.76-1.75c-0.51-0.25-1.49-0.36-3.02-0.4l-3.45-0.22
				c-0.51,0.44-0.87,0.8-1.09,1.16C396.6,131.45,396.49,131.88,396.49,132.43z M397.55,120.25c0.51,0.51,1.34,0.76,2.51,0.76
				c1.16,0,1.96-0.25,2.47-0.76c0.51-0.51,0.76-1.31,0.76-2.36c0-1.09-0.26-1.85-0.76-2.36c-0.51-0.51-1.35-0.76-2.51-0.76
				c-2.14,0-3.23,1.05-3.23,3.12C396.75,118.98,397.04,119.74,397.55,120.25z"/>
			<path class="st0" d="M427.97,126.54l0.98-0.11l0.07,2.84c-2.65,0.54-5.02,0.8-7.09,0.8c-2.58,0-4.47-0.73-5.6-2.15
				c-1.13-1.42-1.71-3.71-1.71-6.83c0-6.22,2.54-9.34,7.6-9.34c4.91,0,7.38,2.69,7.38,8.03l-0.25,2.73h-10.83
				c0.04,1.45,0.33,2.51,0.95,3.2c0.62,0.69,1.75,1.02,3.42,1.02C424.52,126.72,426.23,126.65,427.97,126.54z M425.87,119.56
				c0-1.75-0.29-2.94-0.84-3.64c-0.54-0.69-1.49-1.02-2.8-1.02c-1.31,0-2.25,0.36-2.87,1.09c-0.58,0.73-0.91,1.93-0.95,3.56
				L425.87,119.56L425.87,119.56z"/>
			<path class="st0" d="M446.19,109.13v-3.49h17.56v3.49h-6.76v20.57h-3.93v-20.57H446.19z"/>
			<path class="st0" d="M479.74,126.54l0.98-0.11l0.07,2.84c-2.65,0.54-5.02,0.8-7.09,0.8c-2.58,0-4.47-0.73-5.6-2.15
				c-1.13-1.42-1.71-3.71-1.71-6.83c0-6.22,2.54-9.34,7.6-9.34c4.91,0,7.38,2.69,7.38,8.03l-0.25,2.73h-10.87
				c0.04,1.45,0.33,2.51,0.95,3.2c0.62,0.69,1.75,1.02,3.42,1.02C476.29,126.72,478,126.65,479.74,126.54z M477.63,119.56
				c0-1.75-0.29-2.94-0.84-3.64c-0.54-0.69-1.49-1.02-2.8-1.02c-1.31,0-2.25,0.36-2.87,1.09c-0.58,0.73-0.91,1.93-0.95,3.56
				L477.63,119.56L477.63,119.56z"/>
			<path class="st0" d="M495.15,111.74c1.23,0,2.69,0.18,4.4,0.51l0.87,0.18l-0.14,3.02c-1.86-0.18-3.2-0.29-4.11-0.29
				c-1.78,0-2.98,0.4-3.56,1.2c-0.62,0.8-0.91,2.29-0.91,4.51c0,2.18,0.29,3.71,0.87,4.54c0.58,0.84,1.82,1.27,3.64,1.27l4.11-0.29
				l0.11,3.05c-2.36,0.44-4.15,0.62-5.34,0.62c-2.65,0-4.54-0.73-5.63-2.15c-1.09-1.42-1.64-3.78-1.64-7.05s0.58-5.6,1.71-7.02
				C490.68,112.43,492.54,111.74,495.15,111.74z"/>
			<path class="st0" d="M511.4,129.67h-3.82v-24.83h3.82v8.22c1.75-0.87,3.35-1.31,4.8-1.31c2.33,0,3.93,0.65,4.8,2
				c0.84,1.31,1.27,3.49,1.27,6.54v9.41h-3.82v-9.31c0-1.89-0.18-3.24-0.58-4.03c-0.4-0.8-1.24-1.2-2.51-1.2
				c-1.13,0-2.25,0.18-3.38,0.54l-0.54,0.22v13.74L511.4,129.67L511.4,129.67z"/>
			<path class="st0" d="M534.09,129.67h-3.82v-17.56h3.78v1.09c1.71-0.98,3.31-1.49,4.84-1.49c2.33,0,3.92,0.65,4.8,2
				c0.84,1.31,1.27,3.49,1.27,6.54v9.41h-3.78v-9.31c0-1.89-0.22-3.24-0.62-4.03c-0.4-0.8-1.24-1.2-2.51-1.2
				c-1.2,0-2.33,0.22-3.45,0.69l-0.51,0.22L534.09,129.67L534.09,129.67z"/>
			<path class="st0" d="M553.9,114.04c1.2-1.53,3.2-2.29,6.04-2.29c2.8,0,4.8,0.76,6.03,2.29c1.2,1.53,1.82,3.82,1.82,6.83
				c0,3.05-0.58,5.34-1.75,6.87c-1.16,1.53-3.2,2.33-6.07,2.33c-2.87,0-4.91-0.76-6.07-2.33c-1.16-1.53-1.75-3.85-1.75-6.87
				C552.08,117.85,552.66,115.56,553.9,114.04z M556.74,125.45c0.54,0.95,1.6,1.42,3.16,1.42c1.56,0,2.62-0.47,3.16-1.42
				c0.54-0.95,0.8-2.47,0.8-4.58c0-2.14-0.29-3.64-0.87-4.54c-0.58-0.87-1.6-1.35-3.09-1.35c-1.49,0-2.54,0.44-3.09,1.35
				c-0.58,0.87-0.87,2.4-0.87,4.54C555.94,122.98,556.19,124.5,556.74,125.45z"/>
			<path class="st0" d="M575.24,129.67v-24.83h3.82v24.83H575.24z"/>
			<path class="st0" d="M588.36,114.04c1.2-1.53,3.2-2.29,6.03-2.29c2.8,0,4.8,0.76,6.04,2.29c1.2,1.53,1.82,3.82,1.82,6.83
				c0,3.05-0.58,5.34-1.75,6.87c-1.16,1.53-3.2,2.33-6.07,2.33c-2.87,0-4.91-0.76-6.07-2.33c-1.16-1.53-1.75-3.85-1.75-6.87
				C586.58,117.85,587.16,115.56,588.36,114.04z M591.23,125.45c0.54,0.95,1.6,1.42,3.16,1.42c1.56,0,2.62-0.47,3.16-1.42
				c0.54-0.95,0.8-2.47,0.8-4.58c0-2.14-0.29-3.64-0.87-4.54c-0.58-0.87-1.6-1.35-3.09-1.35c-1.49,0-2.54,0.44-3.09,1.35
				c-0.58,0.87-0.87,2.4-0.87,4.54C590.44,122.98,590.69,124.5,591.23,125.45z"/>
			<path class="st0" d="M624.82,132.07c0,3.85-2.76,5.74-8.32,5.74c-2.65,0-4.65-0.36-5.92-1.09c-1.27-0.73-1.93-2.03-1.93-3.96
				c0-0.87,0.22-1.6,0.62-2.22c0.44-0.62,1.09-1.31,2.03-2c-0.76-0.51-1.16-1.38-1.16-2.54c0-0.47,0.33-1.24,0.95-2.29l0.33-0.51
				c-1.67-1.02-2.51-2.76-2.51-5.27c0-2.11,0.62-3.64,1.89-4.62c1.27-0.98,2.98-1.49,5.12-1.49c1.02,0,2.03,0.11,3.05,0.36
				l0.51,0.11l5.45-0.14v3.09l-2.91-0.18c0.62,0.84,0.95,1.78,0.95,2.87c0,2.29-0.58,3.89-1.75,4.76c-1.16,0.87-2.98,1.31-5.42,1.31
				c-0.62,0-1.13-0.04-1.53-0.14c-0.33,0.8-0.51,1.42-0.51,1.86c0,0.43,0.22,0.72,0.66,0.91c0.44,0.18,1.49,0.26,3.12,0.29
				c2.8,0.04,4.69,0.4,5.71,1.13C624.32,128.68,624.82,130.07,624.82,132.07z M612.43,132.43c0,0.84,0.33,1.42,0.98,1.75
				c0.65,0.37,1.78,0.51,3.38,0.51c2.84,0,4.25-0.8,4.25-2.44c0-0.91-0.25-1.49-0.76-1.75c-0.51-0.25-1.49-0.36-3.02-0.4l-3.45-0.22
				c-0.51,0.44-0.87,0.8-1.09,1.16C612.54,131.45,612.43,131.88,612.43,132.43z M613.48,120.25c0.51,0.51,1.35,0.76,2.51,0.76
				c1.16,0,1.96-0.25,2.47-0.76c0.51-0.51,0.76-1.31,0.76-2.36c0-1.09-0.25-1.85-0.76-2.36c-0.51-0.51-1.35-0.76-2.51-0.76
				c-2.14,0-3.24,1.05-3.24,3.12C612.72,118.98,612.97,119.74,613.48,120.25z"/>
			<path class="st0" d="M631.44,109.16v-4.03h3.82v4.03L631.44,109.16L631.44,109.16z M631.44,129.67v-17.56h3.82v17.56H631.44z"/>
			<path class="st0" d="M655.91,126.54l0.98-0.11l0.07,2.84c-2.65,0.54-5.01,0.8-7.09,0.8c-2.58,0-4.47-0.73-5.6-2.15
				c-1.13-1.42-1.71-3.71-1.71-6.83c0-6.22,2.55-9.34,7.6-9.34c4.91,0,7.38,2.69,7.38,8.03l-0.25,2.73h-10.87
				c0.04,1.45,0.33,2.51,0.95,3.2c0.62,0.69,1.75,1.02,3.42,1.02C652.42,126.72,654.13,126.65,655.91,126.54z M653.8,119.56
				c0-1.75-0.29-2.94-0.84-3.64s-1.49-1.02-2.8-1.02s-2.26,0.36-2.87,1.09c-0.58,0.73-0.91,1.93-0.95,3.56L653.8,119.56
				L653.8,119.56z"/>
			<path class="st0" d="M676.92,115.74c-2.76-0.37-4.76-0.54-6-0.54c-1.23,0-2.11,0.14-2.58,0.44c-0.47,0.29-0.73,0.76-0.73,1.38
				c0,0.62,0.25,1.09,0.8,1.35c0.51,0.25,1.78,0.54,3.71,0.91c1.96,0.33,3.35,0.87,4.15,1.6c0.84,0.73,1.23,2,1.23,3.85
				c0,1.86-0.58,3.2-1.78,4.07c-1.2,0.87-2.91,1.31-5.16,1.31c-1.42,0-3.24-0.18-5.42-0.58l-1.09-0.18l0.14-3.2
				c2.8,0.37,4.84,0.55,6.07,0.55c1.23,0,2.11-0.14,2.65-0.47c0.51-0.29,0.8-0.8,0.8-1.53c0-0.69-0.25-1.2-0.76-1.45
				c-0.51-0.25-1.71-0.54-3.6-0.87c-1.89-0.33-3.31-0.8-4.18-1.49c-0.87-0.69-1.35-1.93-1.35-3.71c0-1.82,0.62-3.16,1.85-4.03
				c1.24-0.87,2.8-1.35,4.73-1.35c1.49,0,3.35,0.18,5.53,0.55l1.09,0.22L676.92,115.74z"/>
		</g>
	</g>
	<path class="st1" d="M198.55,5.45c-7.45-2.91-15.56-4.51-24.03-4.51H68.81c-6.65,0-13.09,0.98-19.12,2.8
		C22.39,11.95,2.5,37.26,2.5,67.25v17.23v17.23c0,29.96,19.89,55.29,47.19,63.51c6.07,1.82,12.47,2.8,19.12,2.8h69.03l-30.5-30.5
		l-0.33-0.33l0,0l-4.22-4.21l-3.67-3.67c-1.71-1.71-2.8-3.85-3.23-6.07c-0.29-1.49-0.29-3.02,0-4.51c0.29-1.49,0.87-2.94,1.71-4.22
		c0.44-0.65,0.95-1.27,1.49-1.85l0.18-0.18c1.75-1.71,3.85-2.8,6.07-3.23c0.18-0.04,0.4-0.04,0.58-0.07h3.35h11.74h0.07h16.83
		c13.56-0.04,24.57-11.05,24.57-24.65c0-0.04,0-0.04,0-0.07c0-0.04,0-0.07,0-0.07c0-13.6-10.98-24.61-24.57-24.65h-16.83h-0.07
		H79.79h-0.44l0,0H68.19c-2.44,0-4.73-0.73-6.58-2c-1.24-0.84-2.33-1.93-3.16-3.2c-0.84-1.27-1.45-2.65-1.78-4.22
		c-0.14-0.76-0.25-1.56-0.25-2.36v-0.25c0-2.44,0.73-4.69,2-6.58c0.84-1.27,1.93-2.33,3.16-3.2c1.27-0.84,2.69-1.45,4.22-1.78
		c0.76-0.14,1.56-0.26,2.36-0.26h52.89h17.08c17.7,0,33.16,9.56,41.52,23.78c2.14,3.6,3.82,7.52,4.94,11.67
		c0,0.04,0.04,0.14,0.04,0.18c0.36,1.27,0.62,2.58,0.91,3.89c0.22,1.13,0.4,2.25,0.51,3.42c0.04,0.22,0.04,0.47,0.07,0.69
		c0.18,1.6,0.29,3.24,0.29,4.91c0,1.63-0.11,3.27-0.29,4.91c-0.04,0.22-0.04,0.47-0.07,0.69c-0.11,1.16-0.29,2.29-0.51,3.42
		c-0.25,1.31-0.54,2.62-0.91,3.89c-0.04,0.07-0.04,0.11-0.04,0.18c-1.13,4.14-2.8,8.03-4.94,11.67
		c-8.4,14.22-23.81,23.78-41.52,23.78h-1.67l35.04,35.04l21.52,21.52l5.56,5.56v-31.59c24.76-9.63,42.28-33.66,42.28-61.8V84.45
		V67.22C240.83,39.11,223.31,15.08,198.55,5.45"/>
</g>
</svg>
